<svg width="20" height="20" viewBox="0 0 20 20" fill="none" xmlns="http://www.w3.org/2000/svg">
<path d="M5 17.5V15.8333C5 14.9493 5.35119 14.1014 5.97631 13.4763C6.60143 12.8512 7.44928 12.5 8.33333 12.5H10.4167M15.8341 17.5C15.3921 17.5 14.9682 17.3244 14.6556 17.0118C14.3431 16.6993 14.1675 16.2754 14.1675 15.8333C14.1675 15.3913 14.3431 14.9674 14.6556 14.6548C14.9682 14.3423 15.3921 14.1667 15.8341 14.1667M15.8341 17.5C16.2762 17.5 16.7001 17.3244 17.0127 17.0118C17.3252 16.6993 17.5008 16.2754 17.5008 15.8333C17.5008 15.3913 17.3252 14.9674 17.0127 14.6548C16.7001 14.3423 16.2762 14.1667 15.8341 14.1667M15.8341 17.5V18.75M15.8341 14.1667V12.9167M18.3599 14.375L17.2774 15M14.3918 16.6667L13.3085 17.2917M13.3085 14.375L14.3918 15M17.2774 16.6667L18.3608 17.2917M6.66667 5.83333C6.66667 6.71739 7.01786 7.56523 7.64298 8.19036C8.2681 8.81548 9.11594 9.16667 10 9.16667C10.8841 9.16667 11.7319 8.81548 12.357 8.19036C12.9821 7.56523 13.3333 6.71739 13.3333 5.83333C13.3333 4.94928 12.9821 4.10143 12.357 3.47631C11.7319 2.85119 10.8841 2.5 10 2.5C9.11594 2.5 8.2681 2.85119 7.64298 3.47631C7.01786 4.10143 6.66667 4.94928 6.66667 5.83333Z" stroke="black" stroke-opacity="0.5" stroke-width="1.5" stroke-linecap="round" stroke-linejoin="round"/>
</svg>
