<svg width="38" height="37" viewBox="0 0 38 37" fill="none" xmlns="http://www.w3.org/2000/svg">
<circle cx="19" cy="18.5" r="18.5" fill="black"/>
<path fill-rule="evenodd" clip-rule="evenodd" d="M9.25 19C9.25 18.5858 9.58579 18.25 10 18.25L28.0007 18.25C28.4149 18.25 28.7507 18.5858 28.7507 19C28.7507 19.4142 28.4149 19.75 28.0007 19.75L10 19.75C9.58579 19.75 9.25 19.4142 9.25 19Z" fill="#FFD900"/>
<path fill-rule="evenodd" clip-rule="evenodd" d="M23.5199 12.4238C23.8381 12.1586 24.311 12.2016 24.5762 12.5198L29.3096 18.1997C29.6959 18.6633 29.6959 19.3366 29.3096 19.8002L24.5762 25.4801C24.311 25.7983 23.8381 25.8413 23.5199 25.5761C23.2017 25.3109 23.1587 24.838 23.4239 24.5198L28.0239 19L23.4239 13.4801C23.1587 13.1619 23.2017 12.689 23.5199 12.4238Z" fill="#FFD900"/>
</svg>
