<svg width="50" height="50" viewBox="0 0 50 50" fill="none" xmlns="http://www.w3.org/2000/svg">
<circle cx="25" cy="25" r="25" fill="#00CCFF"/>
<path d="M19 34V32C19 30.9391 19.4214 29.9217 20.1716 29.1716C20.9217 28.4214 21.9391 28 23 28H27C28.0609 28 29.0783 28.4214 29.8284 29.1716C30.5786 29.9217 31 30.9391 31 32V34M21 20C21 21.0609 21.4214 22.0783 22.1716 22.8284C22.9217 23.5786 23.9391 24 25 24C26.0609 24 27.0783 23.5786 27.8284 22.8284C28.5786 22.0783 29 21.0609 29 20C29 18.9391 28.5786 17.9217 27.8284 17.1716C27.0783 16.4214 26.0609 16 25 16C23.9391 16 22.9217 16.4214 22.1716 17.1716C21.4214 17.9217 21 18.9391 21 20Z" stroke="white" stroke-width="2" stroke-linecap="round" stroke-linejoin="round"/>
</svg>
