<svg width="20" height="20" viewBox="0 0 20 20" fill="none" xmlns="http://www.w3.org/2000/svg">
<path d="M10 13.3333V13.3416M10 10.8331C10.3748 10.8342 10.739 10.7089 11.0339 10.4776C11.3287 10.2462 11.537 9.92222 11.625 9.55791C11.7131 9.1936 11.6758 8.81026 11.5191 8.46977C11.3625 8.12929 11.0956 7.85154 10.7617 7.68139C10.4301 7.51156 10.0509 7.45891 9.68567 7.53199C9.32043 7.60507 8.99066 7.79958 8.75 8.08389M16.5625 5.22498C17.1458 5.55665 17.5042 6.17748 17.5 6.84832V12.9183C17.5 13.5925 17.1308 14.2142 16.535 14.5417L10.91 18.1C10.6311 18.2531 10.3181 18.3334 10 18.3334C9.68186 18.3334 9.36887 18.2531 9.09 18.1L3.465 14.5417C3.17347 14.3823 2.9301 14.1476 2.76034 13.862C2.59058 13.5765 2.50067 13.2505 2.5 12.9183V6.84748C2.5 6.17332 2.86917 5.55248 3.465 5.22498L9.09 1.90832C9.37711 1.75001 9.69964 1.66699 10.0275 1.66699C10.3554 1.66699 10.6779 1.75001 10.965 1.90832L16.59 5.22498H16.5625Z" stroke="black" stroke-opacity="0.5" stroke-width="1.5" stroke-linecap="round" stroke-linejoin="round"/>
</svg>
