<svg width="48" height="48" viewBox="0 0 48 48" fill="none" xmlns="http://www.w3.org/2000/svg">
<path d="M24 4C12.9796 4 4 12.9796 4 24C4 35.0204 12.9796 44 24 44C35.0204 44 44 35.0204 44 24C44 12.9796 35.0204 4 24 4ZM31.1429 20.9388L22.9796 29.102C22.5714 29.3061 22.3673 29.5102 21.9592 29.5102C21.551 29.5102 21.1429 29.3061 20.9388 29.102L16.8571 25.0204C16.2449 24.4082 16.2449 23.3878 16.8571 22.7755C17.4694 22.1633 18.4898 22.1633 19.102 22.7755L22.1633 25.8367L29.3061 18.6939C29.9184 18.0816 30.9388 18.0816 31.551 18.6939C31.7551 19.5102 31.7551 20.3265 31.1429 20.9388Z" fill="#FFD900"/>
</svg>
