<svg width="20" height="20" viewBox="0 0 20 20" fill="none" xmlns="http://www.w3.org/2000/svg">
<path d="M9.99984 14.1667V14.1751M9.99984 11.6666C10.3746 11.6677 10.7389 11.5424 11.0337 11.3111C11.3286 11.0797 11.5368 10.7557 11.6249 10.3914C11.7129 10.0271 11.6756 9.64375 11.5189 9.30327C11.3623 8.96278 11.0954 8.68504 10.7615 8.51488C10.43 8.34506 10.0508 8.29241 9.68551 8.36548C9.32027 8.43856 8.99049 8.63308 8.74984 8.91738M8.53319 3.29755L1.51485 15.0142C1.37025 15.2648 1.29376 15.5489 1.29297 15.8382C1.29219 16.1275 1.36716 16.412 1.51041 16.6633C1.65366 16.9147 1.86021 17.1242 2.10952 17.271C2.35883 17.4178 2.64222 17.4967 2.93152 17.5H16.969C17.2583 17.4967 17.5417 17.4178 17.791 17.271C18.0403 17.1242 18.2469 16.9147 18.3901 16.6633C18.5334 16.412 18.6083 16.1275 18.6076 15.8382C18.6068 15.5489 18.5303 15.2648 18.3857 15.0142L11.3665 3.29755C11.2187 3.0542 11.0107 2.85304 10.7626 2.71343C10.5145 2.57383 10.2346 2.50049 9.94985 2.50049C9.66514 2.50049 9.38524 2.57383 9.1371 2.71343C8.88897 2.85304 8.68099 3.0542 8.53319 3.29755Z" stroke="black" stroke-opacity="0.5" stroke-width="1.5" stroke-linecap="round" stroke-linejoin="round"/>
</svg>
